<svg width="7" height="4" viewBox="0 0 7 4" fill="none" xmlns="http://www.w3.org/2000/svg">
<path d="M3.80713 3.86971C3.8115 3.86491 3.81325 3.85851 3.81762 3.85371L6.87204 0.768022C7.04265 0.594417 7.04265 0.312809 6.87204 0.139204C6.87029 0.137604 6.86854 0.136804 6.86679 0.136004C6.82883 0.093967 6.78129 0.0600165 6.72749 0.0365252C6.67369 0.013034 6.61493 0.000568571 6.55531 0H0.445607C0.384897 0.000896997 0.325142 0.0139722 0.270565 0.0383022C0.215988 0.0626322 0.167919 0.0976236 0.129754 0.140804L0.128004 0.139204C0.0454359 0.226555 0 0.338156 0 0.453613C0 0.569069 0.0454359 0.680671 0.128004 0.768022L3.18942 3.86971C3.22753 3.91056 3.27488 3.94336 3.3282 3.96586C3.38152 3.98835 3.43955 4 3.49827 4C3.55699 4 3.61502 3.98835 3.66834 3.96586C3.72166 3.94336 3.76901 3.91056 3.80713 3.86971Z" fill="#5E2A16"/>
</svg>
