<svg width="14" height="14" viewBox="0 0 14 14" fill="none" xmlns="http://www.w3.org/2000/svg">
<g clip-path="url(#clip0_202_11)">
<path d="M8.85606 5.14384C9.88118 6.16897 9.88118 7.83103 8.85606 8.85615C7.83094 9.88128 6.16887 9.88128 5.14375 8.85615C4.11863 7.83103 4.11863 6.16897 5.14375 5.14384C6.16887 4.11872 7.83094 4.11872 8.85606 5.14384Z" fill="#5E2A16"/>
<path d="M10.0625 0H3.9375C1.76623 0 0 1.76623 0 3.9375V10.0625C0 12.2338 1.76623 14 3.9375 14H10.0625C12.2338 14 14 12.2338 14 10.0625V3.9375C14 1.76623 12.2338 0 10.0625 0ZM7 10.5C5.07013 10.5 3.5 8.93029 3.5 7C3.5 5.06971 5.07013 3.5 7 3.5C8.92987 3.5 10.5 5.06971 10.5 7C10.5 8.93029 8.92987 10.5 7 10.5ZM10.9375 3.5C10.6959 3.5 10.5 3.30411 10.5 3.0625C10.5 2.82084 10.6959 2.625 10.9375 2.625C11.1791 2.625 11.375 2.82084 11.375 3.0625C11.375 3.30411 11.1791 3.5 10.9375 3.5Z" fill="#5E2A16"/>
</g>
<defs>
<clipPath id="clip0_202_11">
<rect width="14" height="14" fill="white"/>
</clipPath>
</defs>
</svg>
