<svg width="186" height="36" viewBox="0 0 186 36" fill="none" xmlns="http://www.w3.org/2000/svg">
<path d="M178.576 0.5C178.663 1.86334 179.103 2.93782 179.748 3.77441C180.465 4.70367 181.411 5.31109 182.331 5.70898C183.252 6.10686 184.166 6.30358 184.845 6.40137C185.098 6.4378 185.32 6.45816 185.5 6.47266V29.5107C182.176 29.6496 180.406 31.1726 179.494 32.75C179.025 33.5609 178.793 34.3672 178.677 34.9678C178.638 35.1693 178.615 35.3494 178.598 35.5H7.42383C7.33718 34.1367 6.89708 33.0622 6.25195 32.2256C5.53532 31.2963 4.58934 30.6889 3.66895 30.291C2.74847 29.8931 1.834 29.6964 1.15527 29.5986C0.90229 29.5622 0.679997 29.5409 0.5 29.5264V6.47266C0.679983 6.45816 0.902327 6.4378 1.15527 6.40137C1.83401 6.30357 2.74847 6.10686 3.66895 5.70898C4.58935 5.31109 5.53532 4.70366 6.25195 3.77441C6.89708 2.93783 7.3372 1.86332 7.42383 0.5H178.576Z" stroke="#FFF2D6"/>
</svg>
