<svg width="16" height="16" viewBox="0 0 16 16" fill="none" xmlns="http://www.w3.org/2000/svg">
<path d="M7.64154 15.7318L7.11518 13.9437C6.39793 11.5075 4.49254 9.60207 2.05621 8.88483L0.268153 8.35846C-0.0893841 8.25323 -0.0893841 7.74682 0.268153 7.64152L2.05621 7.11515C4.49254 6.39799 6.39793 4.4926 7.11518 2.05628L7.64154 0.268153C7.74677 -0.0893841 8.25318 -0.0893841 8.35849 0.268153L8.88485 2.05628C9.60202 4.4926 11.5074 6.39799 13.9437 7.11515L15.7318 7.64152C16.0894 7.74682 16.0894 8.25323 15.7318 8.35846L13.9437 8.88483C11.5074 9.60207 9.60202 11.5075 8.88485 13.9437L8.35849 15.7318C8.25318 16.0894 7.74677 16.0894 7.64154 15.7318Z" fill="#FFF2D6"/>
</svg>
