<svg width="208" height="21" viewBox="0 0 208 21" fill="none" xmlns="http://www.w3.org/2000/svg">
<path d="M0.232 7.888C0.232 6.612 0.203 5.365 0.145 4.147C0.106333 2.90966 0.0579995 1.653 -5.06639e-07 0.376995C0.560666 0.415662 1.11167 0.454329 1.653 0.492995C2.19433 0.512329 2.74533 0.521997 3.306 0.521997C3.86667 0.521997 4.41767 0.502663 4.959 0.463996C5.50033 0.405995 6.05133 0.376995 6.612 0.376995C7.424 0.376995 8.19733 0.454328 8.932 0.608995C9.66667 0.763662 10.3047 1.02466 10.846 1.392C11.4067 1.74 11.8417 2.204 12.151 2.784C12.4797 3.364 12.644 4.089 12.644 4.959C12.644 5.887 12.4313 6.68933 12.006 7.366C11.6 8.02333 11.0973 8.57433 10.498 9.019C9.89867 9.44433 9.251 9.78266 8.555 10.034C7.87833 10.266 7.25967 10.4207 6.699 10.498C6.931 10.788 7.25 11.194 7.656 11.716C8.062 12.238 8.51633 12.818 9.019 13.456C9.52167 14.0747 10.0437 14.732 10.585 15.428C11.1263 16.1047 11.6483 16.762 12.151 17.4C12.6537 18.0187 13.1273 18.589 13.572 19.111C14.0167 19.633 14.3743 20.0293 14.645 20.3C14.355 20.2613 14.065 20.242 13.775 20.242C13.485 20.242 13.195 20.242 12.905 20.242C12.6343 20.242 12.354 20.242 12.064 20.242C11.774 20.242 11.4937 20.2613 11.223 20.3C10.933 19.894 10.4883 19.285 9.889 18.473C9.309 17.661 8.66133 16.791 7.946 15.863C7.23067 14.935 6.496 14.0167 5.742 13.108C5.00733 12.18 4.33067 11.397 3.712 10.759H2.61V12.876C2.61 14.152 2.62933 15.4087 2.668 16.646C2.726 17.8833 2.784 19.1013 2.842 20.3C2.39733 20.2613 1.92367 20.242 1.421 20.242C0.918333 20.242 0.444666 20.2613 -5.06639e-07 20.3C0.0579995 19.1013 0.106333 17.8833 0.145 16.646C0.203 15.4087 0.232 14.152 0.232 12.876V7.888ZM2.61 9.541C2.88067 9.599 3.17067 9.63766 3.48 9.657C3.80867 9.67633 4.16633 9.686 4.553 9.686C5.15233 9.686 5.771 9.61833 6.409 9.483C7.06633 9.34766 7.66567 9.11566 8.207 8.787C8.74833 8.439 9.193 7.98466 9.541 7.424C9.90833 6.844 10.092 6.119 10.092 5.249C10.092 4.495 9.947 3.87633 9.657 3.393C9.38633 2.89033 9.02867 2.494 8.584 2.204C8.13933 1.914 7.656 1.72066 7.134 1.624C6.612 1.508 6.09967 1.45 5.597 1.45C4.92033 1.45 4.35967 1.46933 3.915 1.508C3.47033 1.52733 3.09333 1.55633 2.784 1.595C2.74533 2.65833 2.70667 3.712 2.668 4.756C2.62933 5.8 2.61 6.844 2.61 7.888V9.541ZM33.0695 9.802C33.0695 7.05666 33.0598 4.93966 33.0405 3.451C33.0212 1.96233 32.9728 0.937662 32.8955 0.376995C33.1082 0.415662 33.3112 0.454329 33.5045 0.492995C33.6978 0.512329 33.8912 0.521997 34.0845 0.521997C34.3358 0.521997 34.6258 0.473663 34.9545 0.376995C34.8965 1.05366 34.8385 1.86566 34.7805 2.813C34.7225 3.741 34.6742 4.74633 34.6355 5.829C34.5968 6.89233 34.5582 7.99433 34.5195 9.135C34.4808 10.2563 34.4518 11.3487 34.4325 12.412C34.4132 13.7073 34.2102 14.8673 33.8235 15.892C33.4562 16.9167 32.9245 17.7867 32.2285 18.502C31.5325 19.2173 30.6722 19.7587 29.6475 20.126C28.6422 20.4933 27.4822 20.677 26.1675 20.677C23.2675 20.677 21.1602 20.0197 19.8455 18.705C18.5308 17.3903 17.8735 15.312 17.8735 12.47C17.8735 11.5613 17.8928 10.759 17.9315 10.063C17.9895 9.34766 18.0185 8.62266 18.0185 7.888C18.0185 6.264 17.9992 4.82366 17.9605 3.567C17.9218 2.31033 17.8832 1.247 17.8445 0.376995C18.0765 0.415662 18.3278 0.454329 18.5985 0.492995C18.8692 0.512329 19.1205 0.521997 19.3525 0.521997C19.5652 0.521997 19.7682 0.512329 19.9615 0.492995C20.1742 0.454329 20.3868 0.415662 20.5995 0.376995C20.5608 0.802329 20.5222 1.363 20.4835 2.059C20.4448 2.73566 20.4062 3.509 20.3675 4.379C20.3288 5.249 20.2998 6.18666 20.2805 7.192C20.2612 8.19733 20.2515 9.24133 20.2515 10.324C20.2515 10.9813 20.2612 11.6677 20.2805 12.383C20.2998 13.079 20.3675 13.7653 20.4835 14.442C20.5995 15.0993 20.7832 15.7373 21.0345 16.356C21.3052 16.9553 21.6822 17.487 22.1655 17.951C22.6488 18.3957 23.2578 18.7533 23.9925 19.024C24.7272 19.2753 25.6358 19.401 26.7185 19.401C27.7818 19.401 28.6712 19.2463 29.3865 18.937C30.1212 18.6277 30.7205 18.2217 31.1845 17.719C31.6485 17.2163 32.0062 16.6363 32.2575 15.979C32.5282 15.3217 32.7215 14.6353 32.8375 13.92C32.9535 13.2047 33.0212 12.4893 33.0405 11.774C33.0598 11.0587 33.0695 10.4013 33.0695 9.802ZM39.8938 16.53C40.0485 16.878 40.2515 17.2357 40.5028 17.603C40.7735 17.951 41.0925 18.27 41.4598 18.56C41.8465 18.85 42.2911 19.0917 42.7938 19.285C43.2965 19.459 43.8571 19.546 44.4758 19.546C45.1138 19.546 45.6841 19.4397 46.1868 19.227C46.7088 18.995 47.1438 18.6953 47.4918 18.328C47.8591 17.9413 48.1395 17.4967 48.3328 16.994C48.5261 16.472 48.6228 15.921 48.6228 15.341C48.6228 14.4517 48.3908 13.746 47.9268 13.224C47.4821 12.702 46.9215 12.267 46.2448 11.919C45.5681 11.571 44.8335 11.252 44.0408 10.962C43.2675 10.672 42.5425 10.3143 41.8658 9.889C41.1891 9.44433 40.6188 8.88366 40.1548 8.207C39.7101 7.53033 39.4878 6.62166 39.4878 5.481C39.4878 4.669 39.6328 3.93433 39.9228 3.277C40.2128 2.60033 40.6285 2.02033 41.1698 1.537C41.7305 1.05366 42.3975 0.676663 43.1708 0.405996C43.9441 0.13533 44.8141 -3.63588e-06 45.7808 -3.63588e-06C46.7088 -3.63588e-06 47.5111 0.115996 48.1878 0.347995C48.8645 0.560663 49.4928 0.898996 50.0728 1.363C49.8988 1.69166 49.7538 2.03966 49.6378 2.407C49.5218 2.77433 49.4058 3.23833 49.2898 3.799H48.9418C48.8451 3.52833 48.7098 3.23833 48.5358 2.929C48.3811 2.60033 48.1588 2.30066 47.8688 2.03C47.5981 1.75933 47.2695 1.537 46.8828 1.363C46.4961 1.16966 46.0321 1.073 45.4908 1.073C44.9495 1.073 44.4468 1.16 43.9828 1.334C43.5381 1.508 43.1418 1.75933 42.7938 2.088C42.4651 2.39733 42.2041 2.77433 42.0108 3.219C41.8368 3.66366 41.7498 4.147 41.7498 4.669C41.7498 5.57766 41.9721 6.293 42.4168 6.815C42.8808 7.337 43.4511 7.78166 44.1278 8.149C44.8045 8.497 45.5295 8.816 46.3028 9.106C47.0955 9.37666 47.8301 9.715 48.5068 10.121C49.1835 10.527 49.7441 11.049 50.1888 11.687C50.6528 12.325 50.8848 13.1757 50.8848 14.239C50.8848 15.1283 50.7205 15.9693 50.3918 16.762C50.0825 17.5547 49.6185 18.2507 48.9998 18.85C48.4005 19.43 47.6561 19.8843 46.7668 20.213C45.8968 20.5223 44.9011 20.677 43.7798 20.677C42.5811 20.677 41.6048 20.5223 40.8508 20.213C40.1161 19.8843 39.4975 19.517 38.9948 19.111C39.1688 18.6663 39.2848 18.27 39.3428 17.922C39.4201 17.5547 39.4878 17.0907 39.5458 16.53H39.8938ZM69.5318 7.888C69.5318 6.612 69.5028 5.365 69.4448 4.147C69.4061 2.90966 69.3578 1.653 69.2998 0.376995C69.5511 0.415662 69.7928 0.454329 70.0248 0.492995C70.2568 0.512329 70.4888 0.521997 70.7208 0.521997C70.9528 0.521997 71.1848 0.512329 71.4168 0.492995C71.6488 0.454329 71.8905 0.415662 72.1418 0.376995C72.0838 1.653 72.0258 2.90966 71.9678 4.147C71.9291 5.365 71.9098 6.612 71.9098 7.888V12.876C71.9098 14.152 71.9291 15.4087 71.9678 16.646C72.0258 17.8833 72.0838 19.1013 72.1418 20.3C71.6971 20.2613 71.2235 20.242 70.7208 20.242C70.2181 20.242 69.7445 20.2613 69.2998 20.3C69.3578 19.1013 69.4061 17.8833 69.4448 16.646C69.5028 15.4087 69.5318 14.152 69.5318 12.876V10.266C68.4878 10.2467 67.4728 10.237 66.4868 10.237C65.5201 10.2177 64.5148 10.208 63.4708 10.208C62.4268 10.208 61.4118 10.2177 60.4258 10.237C59.4591 10.237 58.4538 10.2467 57.4098 10.266V12.876C57.4098 14.152 57.4291 15.4087 57.4678 16.646C57.5258 17.8833 57.5838 19.1013 57.6418 20.3C57.1971 20.2613 56.7235 20.242 56.2208 20.242C55.7181 20.242 55.2445 20.2613 54.7998 20.3C54.8578 19.1013 54.9061 17.8833 54.9448 16.646C55.0028 15.4087 55.0318 14.152 55.0318 12.876V7.888C55.0318 6.612 55.0028 5.365 54.9448 4.147C54.9061 2.90966 54.8578 1.653 54.7998 0.376995C55.0511 0.415662 55.2928 0.454329 55.5248 0.492995C55.7568 0.512329 55.9888 0.521997 56.2208 0.521997C56.4528 0.521997 56.6848 0.512329 56.9168 0.492995C57.1488 0.454329 57.3905 0.415662 57.6418 0.376995C57.5838 1.653 57.5258 2.90966 57.4678 4.147C57.4291 5.365 57.4098 6.612 57.4098 7.888V8.903C58.4538 8.92233 59.4591 8.94166 60.4258 8.961C61.4118 8.98033 62.4268 8.99 63.4708 8.99C64.5148 8.99 65.5201 8.98033 66.4868 8.961C67.4728 8.94166 68.4878 8.92233 69.5318 8.903V7.888ZM80.7641 11.281C81.2668 11.281 81.7888 11.2907 82.3301 11.31C82.8714 11.3293 83.3934 11.339 83.8961 11.339C84.4374 11.339 84.9788 11.339 85.5201 11.339C86.0614 11.3197 86.6028 11.3003 87.1441 11.281L83.9251 3.915L80.7641 11.281ZM93.6111 20.3C93.3404 20.2613 93.0794 20.242 92.8281 20.242C92.5961 20.242 92.3448 20.242 92.0741 20.242C91.8034 20.242 91.5424 20.242 91.2911 20.242C91.0591 20.242 90.8078 20.2613 90.5371 20.3C90.4018 19.8553 90.2181 19.3237 89.9861 18.705C89.7541 18.067 89.4931 17.4097 89.2031 16.733C88.9324 16.037 88.6521 15.341 88.3621 14.645C88.0721 13.9297 87.8014 13.253 87.5501 12.615C86.9314 12.5957 86.3031 12.586 85.6651 12.586C85.0271 12.5667 84.3891 12.557 83.7511 12.557C83.1518 12.557 82.5621 12.5667 81.9821 12.586C81.4021 12.586 80.8124 12.5957 80.2131 12.615C79.5944 14.123 79.0338 15.5633 78.5311 16.936C78.0284 18.2893 77.6514 19.4107 77.4001 20.3C77.0714 20.2613 76.7138 20.242 76.3271 20.242C75.9404 20.242 75.5828 20.2613 75.2541 20.3C76.8201 16.9167 78.3474 13.5527 79.8361 10.208C81.3248 6.86333 82.8231 3.46066 84.3311 -3.63588e-06H84.8821C85.3461 1.12133 85.8488 2.33933 86.3901 3.654C86.9314 4.94933 87.4824 6.264 88.0431 7.598C88.6038 8.932 89.1644 10.2563 89.7251 11.571C90.2858 12.8857 90.8078 14.1133 91.2911 15.254C91.7938 16.3753 92.2384 17.3807 92.6251 18.27C93.0311 19.1593 93.3598 19.836 93.6111 20.3ZM99.3239 13.311C99.3239 14.297 99.3432 15.2733 99.3819 16.24C99.4205 17.2067 99.4592 18.183 99.4979 19.169C99.8652 19.2077 100.3 19.2463 100.803 19.285C101.306 19.3043 101.818 19.314 102.34 19.314C102.959 19.314 103.548 19.2077 104.109 18.995C104.689 18.7823 105.192 18.473 105.617 18.067C106.042 17.6417 106.381 17.1293 106.632 16.53C106.883 15.9113 107.009 15.2153 107.009 14.442C107.009 13.6107 106.854 12.934 106.545 12.412C106.255 11.8707 105.83 11.455 105.269 11.165C104.708 10.8557 104.032 10.643 103.239 10.527C102.466 10.411 101.596 10.353 100.629 10.353H99.3239V13.311ZM100.89 9.28C101.567 9.28 102.234 9.21233 102.891 9.077C103.568 8.94166 104.167 8.71933 104.689 8.41C105.211 8.08133 105.627 7.656 105.936 7.134C106.265 6.59266 106.429 5.916 106.429 5.104C106.429 4.31133 106.284 3.683 105.994 3.219C105.704 2.73566 105.337 2.36833 104.892 2.117C104.447 1.84633 103.945 1.67233 103.384 1.595C102.823 1.49833 102.263 1.45 101.702 1.45C101.199 1.45 100.774 1.46933 100.426 1.508C100.078 1.52733 99.7685 1.55633 99.4979 1.595C99.4592 2.523 99.4205 3.44133 99.3819 4.35C99.3432 5.25866 99.3239 6.177 99.3239 7.105V9.28H100.89ZM96.9459 7.859C96.9459 6.583 96.9169 5.32633 96.8589 4.089C96.8202 2.85166 96.7719 1.61433 96.7139 0.376995C97.2165 0.415662 97.7289 0.454329 98.2509 0.492995C98.7729 0.512329 99.2852 0.521997 99.7879 0.521997C100.291 0.521997 100.803 0.502663 101.325 0.463996C101.847 0.405995 102.359 0.376995 102.862 0.376995C103.693 0.376995 104.476 0.444662 105.211 0.579996C105.946 0.695995 106.593 0.918329 107.154 1.247C107.715 1.55633 108.159 1.98166 108.488 2.523C108.817 3.06433 108.981 3.741 108.981 4.553C108.981 5.98366 108.527 7.105 107.618 7.917C106.729 8.729 105.559 9.29933 104.109 9.628V9.686C105.83 9.76333 107.183 10.179 108.169 10.933C109.174 11.687 109.677 12.8953 109.677 14.558C109.677 15.6407 109.455 16.5493 109.01 17.284C108.565 18.0187 107.985 18.618 107.27 19.082C106.555 19.5267 105.762 19.8457 104.892 20.039C104.041 20.213 103.191 20.3 102.34 20.3C101.876 20.3 101.402 20.2903 100.919 20.271C100.455 20.2517 99.9909 20.242 99.5269 20.242C99.0629 20.242 98.5892 20.242 98.1059 20.242C97.6419 20.242 97.1779 20.2613 96.7139 20.3C96.7719 19.0627 96.8202 17.835 96.8589 16.617C96.9169 15.3797 96.9459 14.123 96.9459 12.847V7.859ZM129.174 7.888C129.174 6.612 129.145 5.365 129.087 4.147C129.049 2.90966 129 1.653 128.942 0.376995C129.194 0.415662 129.435 0.454329 129.667 0.492995C129.899 0.512329 130.131 0.521997 130.363 0.521997C130.595 0.521997 130.827 0.512329 131.059 0.492995C131.291 0.454329 131.533 0.415662 131.784 0.376995C131.726 1.653 131.668 2.90966 131.61 4.147C131.572 5.365 131.552 6.612 131.552 7.888V12.876C131.552 14.152 131.572 15.4087 131.61 16.646C131.668 17.8833 131.726 19.1013 131.784 20.3C131.34 20.2613 130.866 20.242 130.363 20.242C129.861 20.242 129.387 20.2613 128.942 20.3C129 19.1013 129.049 17.8833 129.087 16.646C129.145 15.4087 129.174 14.152 129.174 12.876V10.266C128.13 10.2467 127.115 10.237 126.129 10.237C125.163 10.2177 124.157 10.208 123.113 10.208C122.069 10.208 121.054 10.2177 120.068 10.237C119.102 10.237 118.096 10.2467 117.052 10.266V12.876C117.052 14.152 117.072 15.4087 117.11 16.646C117.168 17.8833 117.226 19.1013 117.284 20.3C116.84 20.2613 116.366 20.242 115.863 20.242C115.361 20.242 114.887 20.2613 114.442 20.3C114.5 19.1013 114.549 17.8833 114.587 16.646C114.645 15.4087 114.674 14.152 114.674 12.876V7.888C114.674 6.612 114.645 5.365 114.587 4.147C114.549 2.90966 114.5 1.653 114.442 0.376995C114.694 0.415662 114.935 0.454329 115.167 0.492995C115.399 0.512329 115.631 0.521997 115.863 0.521997C116.095 0.521997 116.327 0.512329 116.559 0.492995C116.791 0.454329 117.033 0.415662 117.284 0.376995C117.226 1.653 117.168 2.90966 117.11 4.147C117.072 5.365 117.052 6.612 117.052 7.888V8.903C118.096 8.92233 119.102 8.94166 120.068 8.961C121.054 8.98033 122.069 8.99 123.113 8.99C124.157 8.99 125.163 8.98033 126.129 8.961C127.115 8.94166 128.13 8.92233 129.174 8.903V7.888ZM140.407 11.281C140.909 11.281 141.431 11.2907 141.973 11.31C142.514 11.3293 143.036 11.339 143.539 11.339C144.08 11.339 144.621 11.339 145.163 11.339C145.704 11.3197 146.245 11.3003 146.787 11.281L143.568 3.915L140.407 11.281ZM153.254 20.3C152.983 20.2613 152.722 20.242 152.471 20.242C152.239 20.242 151.987 20.242 151.717 20.242C151.446 20.242 151.185 20.242 150.934 20.242C150.702 20.242 150.45 20.2613 150.18 20.3C150.044 19.8553 149.861 19.3237 149.629 18.705C149.397 18.067 149.136 17.4097 148.846 16.733C148.575 16.037 148.295 15.341 148.005 14.645C147.715 13.9297 147.444 13.253 147.193 12.615C146.574 12.5957 145.946 12.586 145.308 12.586C144.67 12.5667 144.032 12.557 143.394 12.557C142.794 12.557 142.205 12.5667 141.625 12.586C141.045 12.586 140.455 12.5957 139.856 12.615C139.237 14.123 138.676 15.5633 138.174 16.936C137.671 18.2893 137.294 19.4107 137.043 20.3C136.714 20.2613 136.356 20.242 135.97 20.242C135.583 20.242 135.225 20.2613 134.897 20.3C136.463 16.9167 137.99 13.5527 139.479 10.208C140.967 6.86333 142.466 3.46066 143.974 -3.63588e-06H144.525C144.989 1.12133 145.491 2.33933 146.033 3.654C146.574 4.94933 147.125 6.264 147.686 7.598C148.246 8.932 148.807 10.2563 149.368 11.571C149.928 12.8857 150.45 14.1133 150.934 15.254C151.436 16.3753 151.881 17.3807 152.268 18.27C152.674 19.1593 153.002 19.836 153.254 20.3ZM159.279 12.151C159.086 11.8223 158.796 11.3487 158.409 10.73C158.042 10.092 157.626 9.396 157.162 8.642C156.717 7.86866 156.244 7.06633 155.741 6.235C155.238 5.38433 154.755 4.582 154.291 3.828C153.846 3.05466 153.44 2.36833 153.073 1.769C152.706 1.15033 152.425 0.686329 152.232 0.376995C152.503 0.415662 152.764 0.454329 153.015 0.492995C153.286 0.512329 153.556 0.521997 153.827 0.521997C154.098 0.521997 154.359 0.512329 154.61 0.492995C154.881 0.454329 155.151 0.415662 155.422 0.376995C156.292 2.059 157.172 3.712 158.061 5.336C158.97 6.96 159.927 8.65166 160.932 10.411C161.377 9.715 161.841 8.95133 162.324 8.12C162.807 7.28866 163.291 6.438 163.774 5.568C164.257 4.698 164.721 3.828 165.166 2.958C165.611 2.06866 166.026 1.20833 166.413 0.376995C166.896 0.473663 167.273 0.521997 167.544 0.521997C167.815 0.521997 168.192 0.473663 168.675 0.376995C167.747 1.78833 166.916 3.06433 166.181 4.205C165.446 5.34566 164.799 6.38 164.238 7.308C163.677 8.236 163.184 9.077 162.759 9.831C162.334 10.5657 161.966 11.2327 161.657 11.832C161.657 12.5473 161.657 13.311 161.657 14.123C161.676 14.935 161.696 15.7373 161.715 16.53C161.734 17.3033 161.754 18.0283 161.773 18.705C161.812 19.3623 161.85 19.894 161.889 20.3C161.444 20.2613 160.971 20.242 160.468 20.242C159.965 20.242 159.492 20.2613 159.047 20.3C159.163 19.2947 159.231 18.0767 159.25 16.646C159.269 15.2153 159.279 13.717 159.279 12.151ZM173.74 11.281C174.242 11.281 174.764 11.2907 175.306 11.31C175.847 11.3293 176.369 11.339 176.872 11.339C177.413 11.339 177.954 11.339 178.496 11.339C179.037 11.3197 179.578 11.3003 180.12 11.281L176.901 3.915L173.74 11.281ZM186.587 20.3C186.316 20.2613 186.055 20.242 185.804 20.242C185.572 20.242 185.32 20.242 185.05 20.242C184.779 20.242 184.518 20.242 184.267 20.242C184.035 20.242 183.783 20.2613 183.513 20.3C183.377 19.8553 183.194 19.3237 182.962 18.705C182.73 18.067 182.469 17.4097 182.179 16.733C181.908 16.037 181.628 15.341 181.338 14.645C181.048 13.9297 180.777 13.253 180.526 12.615C179.907 12.5957 179.279 12.586 178.641 12.586C178.003 12.5667 177.365 12.557 176.727 12.557C176.127 12.557 175.538 12.5667 174.958 12.586C174.378 12.586 173.788 12.5957 173.189 12.615C172.57 14.123 172.009 15.5633 171.507 16.936C171.004 18.2893 170.627 19.4107 170.376 20.3C170.047 20.2613 169.689 20.242 169.303 20.242C168.916 20.242 168.558 20.2613 168.23 20.3C169.796 16.9167 171.323 13.5527 172.812 10.208C174.3 6.86333 175.799 3.46066 177.307 -3.63588e-06H177.858C178.322 1.12133 178.824 2.33933 179.366 3.654C179.907 4.94933 180.458 6.264 181.019 7.598C181.579 8.932 182.14 10.2563 182.701 11.571C183.261 12.8857 183.783 14.1133 184.267 15.254C184.769 16.3753 185.214 17.3807 185.601 18.27C186.007 19.1593 186.335 19.836 186.587 20.3ZM206.248 20.677C204.025 18.1057 201.657 15.4763 199.143 12.789C196.63 10.0823 194.117 7.395 191.603 4.727C191.584 5.26833 191.565 5.99333 191.545 6.902C191.526 7.81066 191.516 9.048 191.516 10.614C191.516 11.02 191.516 11.5227 191.516 12.122C191.536 12.7213 191.545 13.3497 191.545 14.007C191.565 14.6643 191.584 15.3313 191.603 16.008C191.623 16.6847 191.642 17.313 191.661 17.893C191.681 18.473 191.7 18.9853 191.719 19.43C191.739 19.8553 191.758 20.1453 191.777 20.3C191.468 20.2613 191.13 20.242 190.762 20.242C190.376 20.242 190.018 20.2613 189.689 20.3C189.728 20.1067 189.767 19.749 189.805 19.227C189.863 18.705 189.912 18.0863 189.95 17.371C189.989 16.6363 190.028 15.8437 190.066 14.993C190.124 14.1423 190.163 13.2917 190.182 12.441C190.221 11.5903 190.25 10.759 190.269 9.947C190.289 9.135 190.298 8.41 190.298 7.772C190.298 5.916 190.289 4.321 190.269 2.987C190.269 1.653 190.25 0.657329 190.211 -3.63588e-06H190.675C191.855 1.276 193.111 2.64866 194.445 4.118C195.799 5.568 197.133 7.00833 198.447 8.439C199.781 9.85033 201.038 11.194 202.217 12.47C203.416 13.7267 204.46 14.7997 205.349 15.689V11.745C205.349 9.715 205.33 7.743 205.291 5.829C205.272 3.89566 205.214 2.07833 205.117 0.376995C205.504 0.473663 205.833 0.521997 206.103 0.521997C206.335 0.521997 206.645 0.473663 207.031 0.376995C206.993 0.802329 206.944 1.44033 206.886 2.291C206.848 3.14166 206.799 4.05033 206.741 5.017C206.703 5.98366 206.664 6.931 206.625 7.859C206.587 8.787 206.567 9.53133 206.567 10.092C206.567 10.5753 206.567 11.1553 206.567 11.832C206.567 12.4893 206.567 13.1757 206.567 13.891C206.587 14.6063 206.596 15.3313 206.596 16.066C206.616 16.7813 206.625 17.458 206.625 18.096C206.645 18.7147 206.654 19.256 206.654 19.72C206.654 20.1453 206.654 20.4643 206.654 20.677H206.248Z" fill="#5E2A16"/>
</svg>
